PathFileType	4	(X/Y/Z)	 s03c0001.trc
DataRate	CameraRate	NumFrames	NumMarkers	Units	OrigDataRate	OrigDataStartFrame	OrigNumFrames
200	200	4	49	mm	200	1751	2000
Frame#	Time	racr			lacr			c7			jug			rlel			rdr			llel			ldr			s2			lic			ric			lasi			rasi			rpsi			lpsi			rgt			lgt			rth1			rth2			rth3			rth4			rlfc			rmfc			rsh1			rsh2			rsh3			rsh4			rlmal			rmmal			rcal			rtoe			rmt5			rmt1			lth1			lth2			lth4			lth3			llfc			lmfc			lsh1			lsh2			lsh3			lsh4			llmal			lmmal			lcal			ltoe			lmt1			lmt5			
		X1	Y1	Z1	X2	Y2	Z2	X3	Y3	Z3	X4	Y4	Z4	X5	Y5	Z5	X6	Y6	Z6	X7	Y7	Z7	X8	Y8	Z8	X9	Y9	Z9	X10	Y10	Z10	X11	Y11	Z11	X12	Y12	Z12	X13	Y13	Z13	X14	Y14	Z14	X15	Y15	Z15	X16	Y16	Z16	X17	Y17	Z17	X18	Y18	Z18	X19	Y19	Z19	X20	Y20	Z20	X21	Y21	Z21	X22	Y22	Z22	X23	Y23	Z23	X24	Y24	Z24	X25	Y25	Z25	X26	Y26	Z26	X27	Y27	Z27	X28	Y28	Z28	X29	Y29	Z29	X30	Y30	Z30	X31	Y31	Z31	X32	Y32	Z32	X33	Y33	Z33	X34	Y34	Z34	X35	Y35	Z35	X36	Y36	Z36	X37	Y37	Z37	X38	Y38	Z38	X39	Y39	Z39	X40	Y40	Z40	X41	Y41	Z41	X42	Y42	Z42	X43	Y43	Z43	X44	Y44	Z44	X45	Y45	Z45	X46	Y46	Z46	X47	Y47	Z47	X48	Y48	Z48	X49	Y49	Z49	
1751	8.7550	268.621561	1573.144792	582.604181	263.907169	1589.964696	201.125051	201.860098	1608.145099	394.937282	369.226106	1557.108429	393.330955	193.809752	1301.901892	691.798263	287.445194	1123.211732	888.621952	190.257485	1318.632935	95.007952	272.244887	1129.012461	-111.278013	163.486938	1068.255810	373.472211	301.054448	1165.976215	194.139781	292.468332	1151.759663	565.944629	362.384605	1103.750835	237.373416	362.191879	1100.087848	519.483841	165.094910	1108.677225	422.891004	169.477480	1117.323519	340.124098	273.404085	1009.093143	560.925617	287.203162	1015.544414	186.858225	285.863130	870.263825	576.164577	316.315290	786.574474	570.372045	305.966719	703.431822	555.846025	352.373109	791.969896	565.800053	299.701727	577.307427	524.035581	330.748831	556.746446	417.749945	244.429811	412.925699	552.191481	255.292424	323.756485	547.812266	219.712229	243.453671	542.083803	289.475319	320.243127	530.230905	209.209088	104.457456	530.822976	249.087895	121.934292	449.815731	165.340480	56.233712	483.225657	468.709521	90.470783	502.943505	353.625587	43.369421	563.313177	378.931529	80.564907	453.720188	298.176231	865.765102	174.236561	321.181219	782.545467	181.743680	357.267375	784.494976	183.896724	299.364301	698.085172	195.390400	312.662735	576.869367	220.424641	333.671498	558.953110	334.067673	252.853063	413.555710	184.559577	265.264494	329.324530	192.886654	230.088078	244.861097	196.308594	299.509629	325.149160	211.203300	221.003110	110.700273	206.033063	259.121830	124.958264	292.773958	172.659859	55.132829	258.017166	479.603476	92.320050	234.381531	389.305887	73.221580	286.072540	358.208940	50.571370	172.356821	
1752	8.7600	268.647307	1573.140890	582.587603	263.954375	1589.953497	201.126816	201.851672	1608.154266	394.992677	369.268777	1557.127601	393.333960	193.850328	1301.926108	691.831384	287.500834	1123.246467	888.666764	190.306867	1318.627984	95.010064	272.289530	1129.038954	-111.276198	163.549014	1068.251753	373.471836	301.106582	1165.985049	194.153787	292.494656	1151.758797	565.943433	362.399753	1103.735852	237.381717	362.216426	1100.078864	519.484801	165.137206	1108.682689	422.913817	169.509248	1117.335980	340.131988	273.422131	1009.085021	560.927656	287.230261	1015.538403	186.867779	285.881124	870.269561	576.178873	316.321336	786.578036	570.383197	305.971455	703.438083	555.846252	352.402468	791.954399	565.800618	299.707935	577.291158	524.044120	330.748956	556.758508	417.745415	244.430582	412.921809	552.195824	255.321188	323.746437	547.814770	219.727076	243.457382	542.083626	289.489834	320.243705	530.251765	209.193826	104.449370	530.821812	249.097915	121.923715	449.812974	165.340478	56.233710	483.225657	468.711164	90.463342	502.945468	353.605607	43.372517	563.310294	378.938341	80.569609	453.710761	298.183119	865.767764	174.223908	321.208355	782.551890	181.755410	357.267465	784.496100	183.895154	299.395577	698.089416	195.392253	312.684160	576.871561	220.423210	333.716038	558.974974	334.068878	252.848986	413.572615	184.563651	265.278781	329.308307	192.888884	230.082328	244.870372	196.328570	299.523124	325.156103	211.197731	221.013325	110.709113	206.026623	259.124515	124.964247	292.796200	172.644446	55.147242	258.018416	479.623995	92.088073	234.316919	389.297301	73.217492	286.060160	358.208935	50.571371	172.356827	
1753	8.7650	268.672282	1573.197729	582.601323	263.980792	1589.963304	201.136036	201.896062	1608.150242	394.981413	369.295211	1557.143347	393.342677	193.900080	1301.910874	691.844839	287.558343	1123.279917	888.706191	190.365967	1318.632670	94.993995	272.354389	1129.037978	-111.283863	163.561055	1068.260714	373.489034	301.131832	1166.002837	194.167653	292.525496	1151.771750	565.966792	362.441340	1103.741500	237.394076	362.251464	1100.079296	519.483162	165.172380	1108.678710	422.926280	169.527934	1117.342166	340.147066	273.457742	1009.085936	560.947034	287.252498	1015.537818	186.866297	285.895333	870.258604	576.180479	316.338337	786.583264	570.399087	305.975113	703.433282	555.844046	352.429327	791.934360	565.779981	299.712065	577.304989	524.041401	330.748991	556.739293	417.744730	244.452241	412.923320	552.191784	255.316490	323.752141	547.811220	219.721684	243.465371	542.088790	289.497005	320.236799	530.251196	209.193544	104.460021	530.826334	249.093846	121.934211	449.800674	165.346074	56.215256	483.226548	468.684761	90.483766	502.933219	353.661952	43.369218	563.316631	378.935333	80.573740	453.717060	298.185790	865.759375	174.245558	321.215332	782.536037	181.776111	357.304444	784.489540	183.919767	299.392647	698.091596	195.408204	312.682169	576.868693	220.420521	333.729793	558.964718	334.092393	252.854049	413.568839	184.562447	265.276396	329.317511	192.923162	230.091041	244.887650	196.330777	299.528577	325.151372	211.200144	221.007306	110.694563	206.019812	259.136485	124.970009	292.795507	172.628685	55.160346	258.021319	479.621548	92.087007	234.312476	389.299091	73.219847	286.062801	358.189343	50.560707	172.354914	
1754	8.7700	268.685485	1573.226144	582.620091	264.030530	1589.973912	201.135724	201.917679	1608.161324	394.986182	369.330152	1557.135162	393.351696	193.917961	1301.960288	691.890180	287.599642	1123.311952	888.750093	190.428152	1318.632236	94.982908	272.415806	1129.060440	-111.284363	163.573170	1068.282201	373.503193	301.162575	1166.007357	194.168065	292.600352	1151.771520	565.964139	362.457877	1103.754332	237.382299	362.273432	1100.078595	519.478270	165.232317	1108.677356	422.993924	169.553392	1117.343721	340.149863	273.478714	1009.086826	560.955587	287.277907	1015.539953	186.867707	285.932270	870.266265	576.158186	316.351300	786.566991	570.387724	305.995973	703.431385	555.854521	352.434069	791.944464	565.794059	299.713008	577.307037	524.048815	330.760745	556.741981	417.735594	244.459818	412.925781	552.200945	255.315537	323.748944	547.821050	219.721145	243.469367	542.077052	289.499629	320.256567	530.239192	209.186023	104.478856	530.816860	249.072750	121.933161	449.796352	165.340477	56.233708	483.225657	468.707806	90.469141	502.933114	353.625572	43.369434	563.313174	378.941685	80.560820	453.709125	298.210711	865.755415	174.254109	321.237067	782.542262	181.775121	357.302398	784.495439	183.921688	299.421230	698.086943	195.416489	312.689426	576.863138	220.452856	333.735875	558.981088	334.098427	252.853285	413.576063	184.572599	265.274881	329.332366	192.895502	230.090636	244.888013	196.331033	299.531272	325.156350	211.192700	221.026694	110.704448	206.036071	259.122610	124.959104	292.790684	172.635930	55.157774	258.016096	479.637549	92.320219	234.389229	389.312187	73.206413	286.067485	358.233754	50.559692	172.351081	
